<svg id="svg" version="1.1" xmlns="http://www.w3.org/2000/svg" xmlns:xlink="http://www.w3.org/1999/xlink" width="400" height="400" viewBox="0, 0, 400,400"><g id="svgg"><path id="path0" d="M180.800 29.604 C 179.810 29.785,176.837 30.123,174.194 30.356 C 171.551 30.589,168.131 31.039,166.594 31.357 C 165.057 31.675,162.720 32.144,161.400 32.400 C 139.276 36.686,115.940 47.605,97.883 62.117 C 92.443 66.490,91.436 67.418,83.227 75.639 C 67.068 91.821,56.872 106.766,48.871 126.000 C 44.909 135.525,41.373 147.695,39.634 157.800 C 36.783 174.358,36.763 201.400,39.591 217.200 C 41.541 228.094,47.117 246.862,49.353 250.054 C 49.709 250.562,50.000 251.216,50.000 251.507 C 50.000 252.770,58.831 269.581,59.679 269.933 C 59.856 270.007,60.000 270.245,60.000 270.463 C 60.000 271.447,68.717 283.604,72.975 288.556 C 74.089 289.852,75.786 291.832,76.746 292.956 C 79.560 296.250,87.230 303.970,89.400 305.693 C 90.500 306.566,92.300 308.125,93.400 309.157 C 97.237 312.756,104.718 318.249,113.200 323.694 C 115.460 325.145,124.266 330.000,124.638 330.000 C 124.752 330.000,126.500 330.790,128.523 331.755 C 142.312 338.336,158.387 342.933,173.600 344.646 C 176.570 344.981,180.350 345.412,182.000 345.606 C 185.864 346.058,204.833 346.055,209.000 345.601 C 218.605 344.555,220.658 344.281,225.600 343.385 C 231.182 342.374,233.446 341.825,234.289 341.281 C 234.653 341.047,234.053 338.956,231.967 333.183 C 230.420 328.902,228.101 322.430,226.814 318.800 C 225.527 315.170,223.901 310.670,223.202 308.800 C 222.502 306.930,221.584 304.410,221.161 303.200 C 220.738 301.990,220.279 300.730,220.142 300.400 C 219.536 298.942,217.495 293.172,216.745 290.800 C 216.293 289.370,215.692 287.660,215.409 287.000 C 214.458 284.781,212.465 279.417,211.842 277.400 C 210.886 274.305,209.616 270.727,208.991 269.366 C 208.680 268.687,207.594 265.717,206.579 262.766 C 205.564 259.815,204.215 256.050,203.582 254.400 C 202.949 252.750,201.418 248.610,200.180 245.200 C 198.942 241.790,197.501 237.830,196.976 236.400 C 196.452 234.970,195.673 232.720,195.244 231.400 C 194.815 230.080,193.263 225.760,191.795 221.800 C 189.131 214.612,186.419 207.137,183.595 199.200 C 182.773 196.890,181.244 192.660,180.198 189.800 C 179.151 186.940,177.714 182.980,177.005 181.000 C 176.296 179.020,175.329 176.337,174.858 175.037 C 173.834 172.217,173.812 171.845,174.623 171.034 C 175.184 170.473,184.134 170.410,263.666 170.403 C 312.296 170.398,352.269 170.281,352.494 170.142 C 353.016 169.819,352.645 165.675,351.568 159.812 C 351.123 157.385,350.512 154.050,350.211 152.400 C 347.109 135.401,336.754 111.407,326.648 97.800 C 325.667 96.480,324.175 94.440,323.333 93.266 C 322.490 92.092,320.900 90.048,319.800 88.723 C 318.700 87.399,317.529 85.908,317.198 85.411 C 315.994 83.603,304.019 71.410,300.181 68.083 C 292.542 61.460,285.921 56.483,279.600 52.609 C 277.950 51.598,275.015 49.788,273.078 48.586 C 271.140 47.384,269.340 46.398,269.078 46.395 C 268.815 46.393,267.790 45.917,266.800 45.339 C 262.461 42.804,249.459 37.749,239.800 34.843 C 225.556 30.557,191.925 27.570,180.800 29.604 M208.538 47.383 C 213.591 48.454,222.994 52.341,224.933 54.162 C 225.190 54.403,225.940 54.870,226.600 55.200 C 230.926 57.363,240.575 68.821,243.611 75.400 C 244.525 77.380,245.461 79.352,245.691 79.783 C 249.199 86.336,249.289 108.046,245.840 115.727 C 245.526 116.427,244.523 118.688,243.611 120.752 C 232.611 145.653,198.773 157.255,174.200 144.553 C 172.220 143.529,170.060 142.417,169.400 142.080 C 165.337 140.011,155.952 130.583,153.023 125.628 C 146.566 114.704,143.999 101.254,146.002 88.826 C 149.077 69.737,165.156 52.195,183.600 47.808 C 190.132 46.255,202.237 46.049,208.538 47.383 " stroke="none" fill="#04fb0c" fill-rule="evenodd"></path><path id="path1" d="M0.000 200.000 L 0.000 400.000 200.000 400.000 L 400.000 400.000 400.000 200.000 L 400.000 0.000 200.000 0.000 L 0.000 0.000 0.000 200.000 M214.600 28.419 C 230.280 30.469,229.381 30.312,237.400 32.411 C 239.820 33.044,242.424 33.684,243.187 33.832 C 243.950 33.980,244.850 34.248,245.187 34.426 C 246.267 34.997,251.398 36.800,251.944 36.800 C 252.234 36.800,253.581 37.314,254.939 37.942 C 256.296 38.571,257.855 39.216,258.403 39.377 C 258.952 39.537,261.259 40.553,263.530 41.634 C 265.802 42.715,267.735 43.600,267.826 43.600 C 269.091 43.600,289.305 56.432,293.199 59.706 C 300.978 66.249,303.971 68.941,309.200 74.096 C 311.510 76.373,314.660 79.712,316.200 81.515 C 317.740 83.318,319.945 85.826,321.100 87.088 C 322.255 88.349,323.200 89.548,323.200 89.750 C 323.200 89.953,324.010 91.103,325.000 92.305 C 325.990 93.508,326.800 94.674,326.800 94.897 C 326.800 95.120,327.354 95.955,328.031 96.751 C 329.365 98.323,332.800 103.494,332.800 103.933 C 332.800 104.081,333.416 105.069,334.170 106.129 C 335.335 107.768,338.169 113.202,340.568 118.400 C 340.923 119.170,341.481 120.250,341.808 120.800 C 342.844 122.546,344.834 127.266,345.078 128.557 C 345.207 129.240,345.444 129.980,345.605 130.200 C 346.465 131.377,349.397 140.740,350.803 146.800 C 353.878 160.060,355.195 170.067,354.027 171.309 C 353.393 171.983,349.074 172.017,265.362 172.004 C 168.320 171.990,175.450 171.786,176.605 174.549 C 177.322 176.265,180.794 185.898,182.247 190.200 C 182.767 191.740,183.349 193.360,183.541 193.800 C 183.732 194.240,184.184 195.281,184.545 196.114 C 184.905 196.946,185.200 198.035,185.200 198.534 C 185.200 199.032,185.371 199.611,185.581 199.821 C 185.979 200.219,187.484 204.224,189.781 211.000 C 190.527 213.200,191.792 216.710,192.593 218.800 C 193.394 220.890,194.236 223.230,194.464 224.000 C 194.692 224.770,195.212 226.210,195.619 227.200 C 196.026 228.190,197.181 231.340,198.185 234.200 C 199.190 237.060,200.189 239.713,200.406 240.095 C 200.623 240.477,200.799 241.017,200.799 241.295 C 200.798 241.573,201.232 242.880,201.762 244.200 C 202.293 245.520,203.126 247.860,203.615 249.400 C 204.104 250.940,204.831 252.920,205.232 253.800 C 205.633 254.680,206.682 257.560,207.563 260.200 C 210.258 268.271,210.503 268.953,211.232 270.400 C 211.621 271.170,212.497 273.510,213.179 275.600 C 213.862 277.690,214.573 279.760,214.760 280.200 C 215.802 282.651,216.234 283.832,217.686 288.200 C 218.564 290.840,219.422 293.180,219.592 293.400 C 219.762 293.620,220.176 294.700,220.513 295.800 C 220.849 296.900,221.695 299.330,222.393 301.200 C 223.091 303.070,224.022 305.680,224.462 307.000 C 224.902 308.320,225.415 309.760,225.602 310.200 C 226.568 312.471,227.984 316.403,228.395 317.953 C 228.650 318.917,229.019 319.997,229.215 320.353 C 229.411 320.709,230.211 322.800,230.993 325.000 C 231.775 327.200,232.862 330.129,233.407 331.508 C 233.953 332.887,234.400 334.255,234.400 334.548 C 234.400 334.841,234.852 335.931,235.404 336.969 C 237.633 341.161,236.442 343.711,232.016 344.217 C 230.797 344.357,228.000 344.815,225.800 345.236 C 217.605 346.804,210.456 347.459,200.600 347.545 C 195.320 347.592,190.460 347.723,189.800 347.837 C 184.048 348.835,156.387 344.067,144.375 340.008 C 141.758 339.124,139.427 338.400,139.195 338.400 C 138.809 338.400,127.937 333.789,125.603 332.635 C 124.094 331.889,119.491 329.459,114.400 326.721 C 113.630 326.307,112.280 325.433,111.400 324.779 C 110.520 324.124,109.247 323.344,108.571 323.044 C 107.895 322.745,106.725 321.974,105.971 321.331 C 105.217 320.687,102.775 318.862,100.544 317.274 C 98.313 315.686,96.265 314.120,95.995 313.793 C 95.724 313.467,95.330 313.200,95.120 313.200 C 93.912 313.200,74.545 294.125,72.634 291.053 C 72.241 290.422,70.993 288.865,69.860 287.592 C 68.727 286.320,67.260 284.517,66.600 283.586 C 65.940 282.654,64.770 281.041,64.000 280.001 C 60.786 275.656,58.821 272.764,57.579 270.550 C 54.320 264.736,53.463 263.120,51.346 258.800 C 50.107 256.270,48.872 253.930,48.603 253.600 C 48.334 253.270,47.438 251.110,46.612 248.800 C 41.181 233.620,37.983 221.219,36.810 210.800 C 36.599 208.930,36.226 205.810,35.979 203.867 C 35.570 200.642,35.681 174.378,36.122 169.800 C 36.444 166.463,37.651 158.096,38.170 155.600 C 40.078 146.426,41.155 141.995,42.012 139.800 C 42.184 139.360,42.730 137.650,43.225 136.000 C 43.721 134.350,44.246 132.820,44.393 132.600 C 44.540 132.380,44.889 131.390,45.168 130.400 C 46.017 127.391,48.257 122.275,51.820 115.200 C 55.295 108.302,55.790 107.402,56.900 105.956 C 57.505 105.169,58.000 104.330,58.000 104.093 C 58.000 103.856,58.425 103.153,58.944 102.531 C 59.463 101.909,60.209 100.770,60.602 100.000 C 60.995 99.230,62.100 97.579,63.058 96.330 C 64.016 95.082,64.800 93.937,64.800 93.785 C 64.800 93.467,65.285 92.857,71.238 85.702 C 76.127 79.825,88.029 67.703,91.958 64.600 C 93.351 63.500,95.505 61.727,96.745 60.659 C 97.985 59.592,100.350 57.813,102.000 56.705 C 103.650 55.598,105.879 53.996,106.952 53.146 C 108.026 52.296,109.055 51.600,109.240 51.600 C 109.424 51.600,110.706 50.852,112.087 49.937 C 113.469 49.022,115.050 47.980,115.600 47.622 C 117.252 46.544,131.177 39.769,134.400 38.474 C 138.046 37.010,146.094 34.325,150.200 33.203 C 150.860 33.023,152.660 32.518,154.200 32.080 C 155.740 31.643,159.340 30.904,162.200 30.437 C 165.060 29.971,168.390 29.422,169.600 29.216 C 180.378 27.384,203.547 26.973,214.600 28.419 M188.600 48.611 C 181.800 50.072,180.284 50.471,178.903 51.164 C 178.077 51.580,175.788 52.695,173.818 53.642 C 171.848 54.589,169.958 55.611,169.618 55.912 C 169.278 56.213,167.920 57.311,166.600 58.351 C 165.280 59.391,162.655 61.853,160.766 63.821 C 157.730 66.985,156.696 68.296,154.004 72.400 C 147.083 82.952,145.106 102.924,149.830 114.552 C 150.364 115.864,150.800 117.257,150.800 117.646 C 150.800 118.036,151.132 118.590,151.539 118.877 C 151.945 119.165,152.508 120.120,152.790 121.000 C 153.073 121.880,154.135 123.830,155.152 125.333 C 156.168 126.836,157.183 128.366,157.408 128.733 C 157.751 129.294,159.754 131.325,162.602 134.000 C 162.954 134.330,163.743 135.140,164.357 135.800 C 165.728 137.274,170.038 140.432,172.200 141.547 C 174.179 142.566,177.798 144.295,179.400 144.985 C 180.596 145.500,186.001 146.903,189.800 147.684 C 195.574 148.871,210.683 146.998,215.516 144.496 C 216.332 144.073,217.513 143.601,218.140 143.446 C 219.224 143.179,219.666 142.928,222.684 140.874 C 223.390 140.393,224.136 140.000,224.343 140.000 C 225.306 140.000,236.400 129.755,236.400 128.865 C 236.400 128.650,237.210 127.479,238.200 126.264 C 239.190 125.048,240.000 123.974,240.000 123.877 C 240.000 123.780,240.492 122.823,241.093 121.750 C 242.743 118.804,244.708 113.737,245.415 110.600 C 245.763 109.060,246.216 107.149,246.423 106.354 C 247.270 103.103,246.880 91.121,245.791 86.905 C 244.154 80.572,240.168 71.046,238.802 70.201 C 238.563 70.054,237.937 69.273,237.411 68.466 C 233.925 63.122,225.112 55.854,218.400 52.789 C 216.970 52.135,215.528 51.446,215.195 51.256 C 210.762 48.731,195.231 47.186,188.600 48.611 " stroke="none" fill="#ffffff" fill-rule="evenodd"></path><path id="path2" d="M182.366 28.167 C 182.263 28.270,179.754 28.568,176.789 28.829 C 173.825 29.090,171.040 29.463,170.600 29.658 C 170.056 29.899,170.379 29.943,171.607 29.796 C 186.014 28.068,210.047 28.076,219.400 29.812 C 220.290 29.977,220.438 29.932,219.972 29.638 C 218.458 28.681,183.230 27.303,182.366 28.167 M162.400 30.846 C 149.847 33.160,136.773 37.611,124.241 43.836 C 117.917 46.978,118.076 46.890,112.800 50.141 C 106.452 54.052,101.325 57.666,96.827 61.400 C 95.767 62.280,93.807 63.865,92.471 64.921 C 89.077 67.606,75.765 81.043,72.408 85.172 C 66.411 92.549,61.600 98.874,61.600 99.381 C 61.600 99.506,61.006 100.461,60.279 101.504 C 59.553 102.547,58.503 104.210,57.945 105.200 C 57.388 106.190,56.047 108.548,54.966 110.440 C 52.401 114.929,50.706 118.305,49.160 122.000 C 48.470 123.650,47.584 125.720,47.191 126.600 C 37.589 148.090,33.537 186.071,37.846 214.200 C 38.607 219.170,39.914 224.717,39.966 223.197 C 39.985 222.646,39.817 221.566,39.594 220.797 C 39.023 218.832,37.738 210.271,37.183 204.732 C 36.621 199.121,36.894 170.456,37.550 166.200 C 39.950 150.636,41.497 144.083,45.388 133.000 C 48.374 124.497,52.970 114.419,56.334 109.000 C 57.017 107.900,58.020 106.174,58.562 105.164 C 64.135 94.791,82.171 73.921,93.345 64.917 C 94.915 63.651,96.825 62.027,97.588 61.308 C 98.352 60.588,99.207 60.000,99.488 60.000 C 99.770 60.000,100.000 59.850,100.000 59.667 C 100.000 59.205,110.183 52.175,113.202 50.553 C 113.973 50.139,115.184 49.386,115.893 48.879 C 117.243 47.915,127.582 42.598,130.000 41.624 C 130.770 41.314,132.480 40.580,133.800 39.993 C 135.890 39.063,145.021 35.871,150.400 34.191 C 152.738 33.460,159.884 31.850,165.200 30.857 C 167.510 30.425,168.770 30.072,168.000 30.072 C 167.230 30.072,164.710 30.420,162.400 30.846 M223.000 30.411 C 227.269 31.087,234.152 32.457,236.000 32.999 C 236.990 33.289,238.880 33.832,240.200 34.205 C 246.491 35.983,253.513 38.384,255.582 39.464 C 256.142 39.756,256.754 39.996,256.943 39.998 C 257.657 40.003,271.093 46.472,273.800 48.115 C 274.240 48.382,276.220 49.578,278.200 50.774 C 281.596 52.825,289.565 58.216,290.000 58.756 C 290.110 58.893,291.202 59.749,292.427 60.660 C 294.631 62.298,296.392 63.762,300.950 67.746 C 304.456 70.810,312.296 78.645,314.800 81.588 C 316.010 83.009,317.720 85.017,318.600 86.048 C 320.364 88.115,324.717 93.774,327.181 97.200 C 328.050 98.410,328.908 99.580,329.087 99.800 C 334.808 106.837,346.262 132.493,349.178 144.800 C 349.673 146.890,350.238 149.145,350.433 149.811 C 351.976 155.081,353.887 169.953,353.120 170.720 C 352.750 171.090,332.446 171.200,264.169 171.200 C 188.694 171.200,175.629 171.283,175.232 171.762 C 174.699 172.404,174.949 173.731,176.107 176.400 C 176.537 177.390,177.872 180.990,179.074 184.400 C 180.276 187.810,181.625 191.590,182.070 192.800 C 182.516 194.010,183.559 196.890,184.388 199.200 C 188.971 211.971,189.735 213.999,189.899 213.834 C 190.175 213.559,188.600 208.993,183.403 195.000 C 182.668 193.020,181.623 190.140,181.080 188.600 C 177.472 178.355,176.808 176.545,175.746 174.058 C 174.609 171.396,167.224 171.600,264.569 171.600 C 332.846 171.600,353.150 171.490,353.520 171.120 C 354.093 170.547,354.144 167.581,353.626 164.920 C 353.421 163.864,353.036 161.470,352.772 159.600 C 352.508 157.730,351.950 154.670,351.534 152.800 C 351.118 150.930,350.527 148.230,350.221 146.800 C 349.425 143.075,347.193 135.468,346.764 135.020 C 346.564 134.811,346.399 134.361,346.398 134.020 C 346.394 132.739,341.850 121.570,340.712 120.046 C 340.320 119.521,339.994 118.891,339.987 118.646 C 339.980 118.401,338.993 116.310,337.794 114.000 C 336.595 111.690,335.442 109.440,335.232 109.000 C 330.033 98.121,313.703 78.266,300.197 66.400 C 293.883 60.854,280.974 51.362,277.832 49.956 C 277.375 49.752,276.190 49.052,275.200 48.401 C 273.413 47.227,263.153 42.002,260.161 40.743 C 259.303 40.381,257.520 39.627,256.200 39.066 C 246.895 35.112,230.390 30.654,223.409 30.210 L 220.600 30.031 223.000 30.411 M188.200 47.632 C 184.337 48.359,180.596 49.306,180.220 49.651 C 180.011 49.843,179.602 50.000,179.312 50.000 C 178.745 50.000,170.528 53.934,169.705 54.600 C 169.433 54.820,167.993 55.893,166.505 56.985 C 159.366 62.224,152.962 70.661,149.189 79.800 C 145.454 88.848,145.348 107.085,148.981 115.400 C 149.270 116.060,149.734 117.320,150.013 118.200 C 150.807 120.706,155.315 127.934,157.872 130.800 C 160.629 133.891,166.887 139.715,167.657 139.906 C 167.956 139.981,167.421 139.357,166.468 138.521 C 160.109 132.937,154.035 125.740,152.357 121.800 C 152.075 121.140,151.626 120.330,151.359 120.000 C 146.456 113.954,145.323 88.854,149.556 80.066 C 152.563 73.824,154.575 70.000,154.853 70.000 C 155.044 70.000,155.200 69.801,155.200 69.558 C 155.200 68.425,163.827 59.587,167.794 56.656 C 178.755 48.556,195.252 45.418,209.041 48.810 C 225.186 52.782,237.525 63.728,244.427 80.200 C 248.246 89.315,248.217 106.440,244.366 115.800 C 242.693 119.869,239.756 125.401,238.300 127.230 C 237.475 128.267,236.800 129.213,236.800 129.333 C 236.800 129.940,226.067 140.000,225.420 140.000 C 225.289 140.000,224.512 140.422,223.691 140.938 C 222.871 141.453,221.660 142.213,221.000 142.625 C 217.937 144.539,211.071 146.877,205.376 147.945 C 202.605 148.465,191.493 148.516,188.800 148.022 C 181.946 146.763,172.569 143.095,169.498 140.472 C 169.111 140.142,168.696 139.971,168.575 140.092 C 167.772 140.895,178.682 146.106,184.149 147.531 C 192.775 149.779,208.690 148.871,215.600 145.737 C 225.197 141.383,232.296 135.942,237.953 128.603 C 240.548 125.236,244.800 117.339,244.800 115.887 C 244.800 115.597,244.976 115.184,245.190 114.970 C 247.026 113.134,248.348 96.086,247.217 88.851 C 244.288 70.123,229.090 53.598,210.120 48.513 C 205.806 47.357,192.500 46.822,188.200 47.632 M190.014 214.592 C 190.006 214.808,190.355 215.888,190.790 216.992 C 191.514 218.836,194.717 227.672,197.679 236.000 C 198.344 237.870,199.029 239.760,199.202 240.200 C 199.374 240.640,200.353 243.340,201.376 246.200 C 202.399 249.060,203.859 253.020,204.621 255.000 C 205.383 256.980,206.005 258.879,206.003 259.220 C 206.001 259.561,206.158 260.011,206.350 260.220 C 206.543 260.429,207.266 262.310,207.957 264.400 C 209.269 268.370,209.990 269.935,209.985 268.800 C 209.984 268.470,209.660 267.480,209.267 266.600 C 208.873 265.720,208.224 263.920,207.824 262.600 C 207.424 261.280,206.940 260.029,206.749 259.820 C 206.557 259.611,206.400 259.141,206.400 258.775 C 206.400 258.409,205.891 256.870,205.269 255.355 C 204.647 253.840,203.642 251.160,203.036 249.400 C 202.008 246.413,200.298 241.634,199.602 239.800 C 199.435 239.360,198.659 237.200,197.878 235.000 C 197.096 232.800,195.474 228.300,194.271 225.000 C 193.069 221.700,191.880 218.370,191.629 217.600 C 191.107 216.001,190.035 214.005,190.014 214.592 M40.000 224.985 C 40.000 228.049,45.339 244.441,49.164 253.124 C 54.352 264.899,63.003 278.740,71.337 288.600 C 72.638 290.140,74.535 292.381,75.552 293.581 C 83.093 302.480,97.806 315.260,108.600 322.290 C 114.101 325.872,115.603 326.763,120.200 329.170 C 121.520 329.861,122.870 330.589,123.200 330.786 C 123.960 331.241,130.790 334.400,131.013 334.400 C 131.105 334.400,132.377 334.948,133.839 335.618 C 137.053 337.090,143.709 339.418,147.000 340.222 C 148.320 340.544,149.760 340.968,150.200 341.165 C 150.950 341.499,156.325 342.867,159.000 343.403 C 159.660 343.536,161.413 343.900,162.895 344.212 C 173.667 346.483,184.303 347.332,198.807 347.080 C 211.943 346.852,214.448 346.617,226.600 344.473 C 236.506 342.725,236.966 342.395,235.266 338.255 C 234.802 337.125,233.616 333.950,232.631 331.200 C 231.646 328.450,230.276 324.670,229.586 322.800 C 228.237 319.147,225.583 311.790,222.442 303.000 C 221.971 301.680,221.337 300.060,221.035 299.400 C 220.732 298.740,220.353 297.570,220.193 296.800 C 220.033 296.030,219.564 294.732,219.151 293.916 C 218.738 293.100,218.400 292.245,218.400 292.017 C 218.400 291.614,214.735 281.404,214.015 279.800 C 213.817 279.360,213.450 278.280,213.198 277.400 C 212.619 275.374,210.299 269.568,210.134 269.733 C 210.034 269.832,212.807 278.041,213.738 280.400 C 214.542 282.439,216.333 287.450,218.241 293.000 C 219.452 296.520,220.612 299.760,220.821 300.200 C 221.168 300.934,221.611 302.141,223.389 307.200 C 223.737 308.190,224.185 309.360,224.384 309.800 C 224.584 310.240,225.411 312.580,226.221 315.000 C 227.032 317.420,227.928 319.940,228.211 320.600 C 228.495 321.260,229.920 325.130,231.377 329.200 C 232.835 333.270,234.381 337.443,234.814 338.474 C 236.330 342.088,235.870 342.372,225.600 344.170 C 212.070 346.538,192.134 347.580,182.400 346.429 C 180.310 346.181,176.260 345.714,173.400 345.390 C 167.769 344.751,166.100 344.462,159.400 342.965 C 152.670 341.461,149.847 340.687,142.000 338.198 C 134.926 335.954,119.623 328.736,113.600 324.802 C 113.270 324.587,112.460 324.114,111.800 323.751 C 110.449 323.009,100.951 316.402,99.526 315.213 C 99.017 314.788,97.328 313.397,95.773 312.120 C 94.218 310.844,91.972 308.990,90.781 308.000 C 87.944 305.641,78.347 296.049,75.800 293.027 C 74.700 291.722,72.900 289.621,71.800 288.359 C 68.258 284.294,61.825 275.411,59.611 271.528 C 59.275 270.938,58.256 269.228,57.346 267.728 C 50.754 256.859,44.595 241.896,41.405 229.000 C 40.304 224.549,40.000 223.681,40.000 224.985 " stroke="none" fill="#ffffff" fill-rule="evenodd"></path><path id="path3" d="M181.200 28.842 C 170.284 29.799,157.161 32.078,150.400 34.191 C 145.021 35.871,135.890 39.063,133.800 39.993 C 132.480 40.580,130.770 41.314,130.000 41.624 C 127.582 42.598,117.243 47.915,115.893 48.879 C 115.184 49.386,113.973 50.139,113.202 50.553 C 110.183 52.175,100.000 59.205,100.000 59.667 C 100.000 59.850,99.770 60.000,99.488 60.000 C 99.207 60.000,98.352 60.588,97.588 61.308 C 96.825 62.027,94.915 63.651,93.345 64.917 C 82.171 73.921,64.135 94.791,58.562 105.164 C 58.020 106.174,57.017 107.900,56.334 109.000 C 52.970 114.419,48.374 124.497,45.388 133.000 C 41.497 144.083,39.950 150.636,37.550 166.200 C 36.896 170.446,36.621 199.117,37.181 204.732 C 39.475 227.724,46.618 250.039,57.346 267.728 C 58.256 269.228,59.275 270.938,59.611 271.528 C 61.825 275.411,68.258 284.294,71.800 288.359 C 72.900 289.621,74.700 291.722,75.800 293.027 C 78.347 296.049,87.944 305.641,90.781 308.000 C 91.972 308.990,94.218 310.844,95.773 312.120 C 97.328 313.397,99.017 314.788,99.526 315.213 C 100.951 316.402,110.449 323.009,111.800 323.751 C 112.460 324.114,113.270 324.587,113.600 324.802 C 119.623 328.736,134.926 335.954,142.000 338.198 C 149.847 340.687,152.670 341.461,159.400 342.965 C 166.100 344.462,167.769 344.751,173.400 345.390 C 176.260 345.714,180.310 346.181,182.400 346.429 C 192.134 347.580,212.070 346.538,225.600 344.170 C 235.870 342.372,236.330 342.088,234.814 338.474 C 234.381 337.443,232.835 333.270,231.377 329.200 C 229.920 325.130,228.495 321.260,228.211 320.600 C 227.928 319.940,227.032 317.420,226.221 315.000 C 225.411 312.580,224.584 310.240,224.384 309.800 C 224.185 309.360,223.737 308.190,223.389 307.200 C 221.611 302.141,221.168 300.934,220.821 300.200 C 220.612 299.760,219.452 296.520,218.241 293.000 C 216.330 287.440,214.532 282.411,213.737 280.400 C 213.441 279.649,210.099 270.325,208.219 265.000 C 207.442 262.800,206.625 260.687,206.403 260.305 C 206.181 259.923,206.001 259.383,206.003 259.105 C 206.005 258.827,205.383 256.980,204.621 255.000 C 203.859 253.020,202.399 249.060,201.376 246.200 C 200.353 243.340,199.374 240.640,199.202 240.200 C 199.029 239.760,198.344 237.870,197.679 236.000 C 195.225 229.100,191.557 218.942,190.818 217.000 C 190.101 215.117,187.804 208.762,184.383 199.200 C 183.557 196.890,182.516 194.010,182.070 192.800 C 181.625 191.590,180.276 187.810,179.074 184.400 C 177.872 180.990,176.537 177.390,176.107 176.400 C 174.949 173.731,174.699 172.404,175.232 171.762 C 175.629 171.283,188.694 171.200,264.169 171.200 C 332.446 171.200,352.750 171.090,353.120 170.720 C 353.887 169.953,351.976 155.081,350.433 149.811 C 350.238 149.145,349.673 146.890,349.178 144.800 C 346.262 132.493,334.808 106.837,329.087 99.800 C 328.908 99.580,328.050 98.410,327.181 97.200 C 324.717 93.774,320.364 88.115,318.600 86.048 C 317.720 85.017,316.010 83.009,314.800 81.588 C 309.839 75.759,298.619 65.264,292.427 60.660 C 291.202 59.749,290.110 58.893,290.000 58.756 C 289.565 58.216,281.596 52.825,278.200 50.774 C 276.220 49.578,274.240 48.382,273.800 48.115 C 271.093 46.472,257.657 40.003,256.943 39.998 C 256.754 39.996,256.142 39.756,255.582 39.464 C 253.513 38.384,246.491 35.983,240.200 34.205 C 238.880 33.832,236.990 33.289,236.000 32.999 C 233.860 32.371,226.549 30.965,222.558 30.413 C 220.995 30.196,219.465 29.927,219.158 29.815 C 216.291 28.764,189.824 28.086,181.200 28.842 M213.699 29.918 C 221.672 30.692,233.287 32.883,239.800 34.843 C 249.459 37.749,262.461 42.804,266.800 45.339 C 267.790 45.917,268.815 46.393,269.078 46.395 C 269.340 46.398,271.140 47.384,273.078 48.586 C 275.015 49.788,277.950 51.598,279.600 52.609 C 285.921 56.483,292.542 61.460,300.181 68.083 C 304.019 71.410,315.994 83.603,317.198 85.411 C 317.529 85.908,318.700 87.399,319.800 88.723 C 320.900 90.048,322.490 92.092,323.333 93.266 C 324.175 94.440,325.667 96.480,326.648 97.800 C 336.754 111.407,347.109 135.401,350.211 152.400 C 350.512 154.050,351.123 157.385,351.568 159.812 C 352.645 165.675,353.016 169.819,352.494 170.142 C 352.269 170.281,312.296 170.398,263.666 170.403 C 184.134 170.410,175.184 170.473,174.623 171.034 C 173.812 171.845,173.834 172.217,174.858 175.037 C 175.329 176.337,176.296 179.020,177.005 181.000 C 177.714 182.980,179.151 186.940,180.198 189.800 C 181.244 192.660,182.773 196.890,183.595 199.200 C 186.419 207.137,189.131 214.612,191.795 221.800 C 193.263 225.760,194.815 230.080,195.244 231.400 C 195.673 232.720,196.452 234.970,196.976 236.400 C 197.501 237.830,198.942 241.790,200.180 245.200 C 201.418 248.610,202.949 252.750,203.582 254.400 C 204.215 256.050,205.564 259.815,206.579 262.766 C 207.594 265.717,208.680 268.687,208.991 269.366 C 209.616 270.727,210.886 274.305,211.842 277.400 C 212.465 279.417,214.458 284.781,215.409 287.000 C 215.692 287.660,216.293 289.370,216.745 290.800 C 217.495 293.172,219.536 298.942,220.142 300.400 C 220.279 300.730,220.738 301.990,221.161 303.200 C 221.584 304.410,222.502 306.930,223.202 308.800 C 223.901 310.670,225.527 315.170,226.814 318.800 C 228.101 322.430,230.420 328.902,231.967 333.183 C 234.053 338.956,234.653 341.047,234.289 341.281 C 233.446 341.825,231.182 342.374,225.600 343.385 C 220.658 344.281,218.605 344.555,209.000 345.601 C 204.833 346.055,185.864 346.058,182.000 345.606 C 180.350 345.412,176.570 344.981,173.600 344.646 C 158.387 342.933,142.312 338.336,128.523 331.755 C 126.500 330.790,124.752 330.000,124.638 330.000 C 124.266 330.000,115.460 325.145,113.200 323.694 C 104.718 318.249,97.237 312.756,93.400 309.157 C 92.300 308.125,90.500 306.566,89.400 305.693 C 87.230 303.970,79.560 296.250,76.746 292.956 C 75.786 291.832,74.089 289.852,72.975 288.556 C 68.717 283.604,60.000 271.447,60.000 270.463 C 60.000 270.245,59.856 270.007,59.679 269.933 C 58.831 269.581,50.000 252.770,50.000 251.507 C 50.000 251.216,49.709 250.562,49.353 250.054 C 48.030 248.166,43.198 233.571,41.455 226.200 C 38.399 213.277,37.626 205.469,37.616 187.400 C 37.603 165.257,39.350 153.493,45.279 135.800 C 51.249 117.986,59.807 102.589,72.271 87.239 C 75.031 83.839,89.960 68.650,93.227 65.917 C 114.137 48.427,137.198 37.089,161.400 32.400 C 162.720 32.144,165.057 31.675,166.594 31.357 C 168.131 31.039,171.551 30.589,174.194 30.356 C 176.837 30.123,179.810 29.785,180.800 29.604 C 183.236 29.159,208.337 29.399,213.699 29.918 M188.600 46.817 C 170.565 49.622,155.401 62.051,148.355 79.800 C 143.000 93.292,144.893 111.874,153.023 125.628 C 155.952 130.583,165.337 140.011,169.400 142.080 C 170.060 142.417,172.220 143.529,174.200 144.553 C 198.773 157.255,232.611 145.653,243.611 120.752 C 244.523 118.688,245.526 116.427,245.840 115.727 C 249.289 108.046,249.199 86.336,245.691 79.783 C 245.461 79.352,244.525 77.380,243.611 75.400 C 240.575 68.821,230.926 57.363,226.600 55.200 C 225.940 54.870,225.190 54.403,224.933 54.162 C 219.341 48.912,200.116 45.025,188.600 46.817 M210.120 48.513 C 229.090 53.598,244.288 70.123,247.217 88.851 C 248.348 96.086,247.026 113.134,245.190 114.970 C 244.976 115.184,244.800 115.597,244.800 115.887 C 244.800 117.339,240.548 125.236,237.953 128.603 C 232.296 135.942,225.197 141.383,215.600 145.737 C 203.280 151.325,179.850 148.951,169.432 141.058 C 168.754 140.544,167.956 140.045,167.657 139.948 C 166.847 139.684,160.526 133.775,157.872 130.800 C 155.315 127.934,150.807 120.706,150.013 118.200 C 149.734 117.320,149.270 116.060,148.981 115.400 C 145.888 108.321,145.405 91.783,148.041 83.247 C 151.176 73.101,158.244 63.047,166.505 56.985 C 167.993 55.893,169.433 54.820,169.705 54.600 C 170.528 53.934,178.745 50.000,179.312 50.000 C 179.602 50.000,180.011 49.843,180.220 49.651 C 180.596 49.306,184.337 48.359,188.200 47.632 C 192.500 46.822,205.806 47.357,210.120 48.513 " stroke="none" fill="#ffffff" fill-rule="evenodd"></path><path id="path4" d="M180.000 27.868 C 177.860 28.021,172.674 28.693,169.600 29.216 C 168.390 29.422,165.060 29.971,162.200 30.437 C 159.340 30.904,155.740 31.643,154.200 32.080 C 152.660 32.518,150.860 33.023,150.200 33.203 C 146.094 34.325,138.046 37.010,134.400 38.474 C 131.177 39.769,117.252 46.544,115.600 47.622 C 115.050 47.980,113.469 49.022,112.087 49.937 C 110.706 50.852,109.424 51.600,109.240 51.600 C 109.055 51.600,108.026 52.296,106.952 53.146 C 105.879 53.996,103.650 55.598,102.000 56.705 C 100.350 57.813,97.985 59.592,96.745 60.659 C 95.505 61.727,93.351 63.500,91.958 64.600 C 88.029 67.703,76.127 79.825,71.238 85.702 C 65.285 92.857,64.800 93.467,64.800 93.785 C 64.800 93.937,64.016 95.082,63.058 96.330 C 62.100 97.579,60.995 99.230,60.602 100.000 C 60.209 100.770,59.463 101.909,58.944 102.531 C 58.425 103.153,58.000 103.856,58.000 104.093 C 58.000 104.330,57.505 105.169,56.900 105.956 C 55.790 107.402,55.295 108.302,51.820 115.200 C 48.257 122.275,46.017 127.391,45.168 130.400 C 44.889 131.390,44.540 132.380,44.393 132.600 C 44.246 132.820,43.721 134.350,43.225 136.000 C 42.730 137.650,42.184 139.360,42.012 139.800 C 41.155 141.995,40.078 146.426,38.170 155.600 C 37.651 158.096,36.444 166.463,36.122 169.800 C 35.681 174.378,35.570 200.642,35.979 203.867 C 36.226 205.810,36.599 208.930,36.810 210.800 C 37.983 221.219,41.181 233.620,46.612 248.800 C 47.438 251.110,48.334 253.270,48.603 253.600 C 48.872 253.930,50.107 256.270,51.346 258.800 C 53.463 263.120,54.320 264.736,57.579 270.550 C 58.821 272.764,60.786 275.656,64.000 280.001 C 64.770 281.041,65.940 282.654,66.600 283.586 C 67.260 284.517,68.727 286.320,69.860 287.592 C 70.993 288.865,72.241 290.422,72.634 291.053 C 74.545 294.125,93.912 313.200,95.120 313.200 C 95.330 313.200,95.724 313.467,95.995 313.793 C 96.265 314.120,98.313 315.686,100.544 317.274 C 102.775 318.862,105.217 320.687,105.971 321.331 C 106.725 321.974,107.895 322.745,108.571 323.044 C 109.247 323.344,110.520 324.124,111.400 324.779 C 112.280 325.433,113.630 326.307,114.400 326.721 C 119.491 329.459,124.094 331.889,125.603 332.635 C 127.937 333.789,138.809 338.400,139.195 338.400 C 139.427 338.400,141.758 339.124,144.375 340.008 C 156.387 344.067,184.048 348.835,189.800 347.837 C 190.460 347.723,195.320 347.592,200.600 347.545 C 210.456 347.459,217.605 346.804,225.800 345.236 C 228.000 344.815,230.797 344.357,232.016 344.217 C 236.442 343.711,237.633 341.161,235.404 336.969 C 234.852 335.931,234.400 334.841,234.400 334.548 C 234.400 334.255,233.953 332.887,233.407 331.508 C 232.862 330.129,231.775 327.200,230.993 325.000 C 230.211 322.800,229.411 320.709,229.215 320.353 C 229.019 319.997,228.650 318.917,228.395 317.953 C 227.984 316.403,226.568 312.471,225.602 310.200 C 225.415 309.760,224.902 308.320,224.462 307.000 C 224.022 305.680,223.091 303.070,222.393 301.200 C 221.695 299.330,220.849 296.900,220.513 295.800 C 220.176 294.700,219.762 293.620,219.592 293.400 C 219.422 293.180,218.564 290.840,217.686 288.200 C 216.234 283.832,215.802 282.651,214.760 280.200 C 214.573 279.760,213.862 277.690,213.179 275.600 C 212.497 273.510,211.621 271.170,211.232 270.400 C 210.503 268.953,210.258 268.271,207.563 260.200 C 206.682 257.560,205.633 254.680,205.232 253.800 C 204.831 252.920,204.104 250.940,203.615 249.400 C 203.126 247.860,202.293 245.520,201.762 244.200 C 201.232 242.880,200.798 241.573,200.799 241.295 C 200.799 241.017,200.623 240.477,200.406 240.095 C 200.189 239.713,199.190 237.060,198.185 234.200 C 197.181 231.340,196.026 228.190,195.619 227.200 C 195.212 226.210,194.692 224.770,194.464 224.000 C 194.236 223.230,193.394 220.890,192.593 218.800 C 191.792 216.710,190.527 213.200,189.781 211.000 C 187.484 204.224,185.979 200.219,185.581 199.821 C 185.371 199.611,185.200 199.032,185.200 198.534 C 185.200 198.035,184.905 196.946,184.545 196.114 C 184.184 195.281,183.732 194.240,183.541 193.800 C 183.349 193.360,182.767 191.740,182.247 190.200 C 180.794 185.898,177.322 176.265,176.605 174.549 C 175.450 171.786,168.320 171.990,265.362 172.004 C 349.074 172.017,353.393 171.983,354.027 171.309 C 355.195 170.067,353.878 160.060,350.803 146.800 C 349.397 140.740,346.465 131.377,345.605 130.200 C 345.444 129.980,345.207 129.240,345.078 128.557 C 344.834 127.266,342.844 122.546,341.808 120.800 C 341.481 120.250,340.923 119.170,340.568 118.400 C 338.169 113.202,335.335 107.768,334.170 106.129 C 333.416 105.069,332.800 104.081,332.800 103.933 C 332.800 103.494,329.365 98.323,328.031 96.751 C 327.354 95.955,326.800 95.120,326.800 94.897 C 326.800 94.674,325.990 93.508,325.000 92.305 C 324.010 91.103,323.200 89.953,323.200 89.750 C 323.200 89.548,322.255 88.349,321.100 87.088 C 319.945 85.826,317.740 83.318,316.200 81.515 C 314.660 79.712,311.510 76.373,309.200 74.096 C 303.971 68.941,300.978 66.249,293.199 59.706 C 289.305 56.432,269.091 43.600,267.826 43.600 C 267.735 43.600,265.802 42.715,263.530 41.634 C 261.259 40.553,258.952 39.537,258.403 39.377 C 257.855 39.216,256.296 38.571,254.939 37.942 C 253.581 37.314,252.234 36.800,251.944 36.800 C 251.398 36.800,246.267 34.997,245.187 34.426 C 244.850 34.248,243.950 33.980,243.187 33.832 C 242.424 33.684,239.820 33.044,237.400 32.411 C 229.381 30.312,230.280 30.469,214.600 28.419 C 209.007 27.687,187.354 27.343,180.000 27.868 M214.000 28.731 C 216.750 28.991,219.450 29.369,220.000 29.570 C 220.550 29.772,222.206 30.045,223.680 30.177 C 231.106 30.845,247.215 35.248,256.200 39.066 C 257.520 39.627,259.303 40.381,260.161 40.743 C 263.153 42.002,273.413 47.227,275.200 48.401 C 276.190 49.052,277.375 49.752,277.832 49.956 C 280.974 51.362,293.883 60.854,300.197 66.400 C 313.703 78.266,330.033 98.121,335.232 109.000 C 335.442 109.440,336.595 111.690,337.794 114.000 C 338.993 116.310,339.980 118.401,339.987 118.646 C 339.994 118.891,340.320 119.521,340.712 120.046 C 341.850 121.570,346.394 132.739,346.398 134.020 C 346.399 134.361,346.564 134.811,346.764 135.020 C 347.193 135.468,349.425 143.075,350.221 146.800 C 350.527 148.230,351.118 150.930,351.534 152.800 C 351.950 154.670,352.508 157.730,352.772 159.600 C 353.036 161.470,353.421 163.864,353.626 164.920 C 354.144 167.581,354.093 170.547,353.520 171.120 C 353.150 171.490,332.846 171.600,264.569 171.600 C 167.224 171.600,174.609 171.396,175.746 174.058 C 176.808 176.545,177.472 178.355,181.080 188.600 C 181.623 190.140,182.668 193.020,183.403 195.000 C 186.760 204.038,189.179 210.764,189.734 212.600 C 190.067 213.700,190.709 215.500,191.161 216.600 C 191.941 218.500,194.777 226.268,197.878 235.000 C 198.659 237.200,199.435 239.360,199.602 239.800 C 200.298 241.634,202.008 246.413,203.036 249.400 C 203.642 251.160,204.647 253.840,205.269 255.355 C 205.891 256.870,206.400 258.409,206.400 258.775 C 206.400 259.141,206.554 259.611,206.742 259.820 C 206.930 260.029,207.391 261.190,207.765 262.400 C 208.475 264.696,209.212 266.709,211.424 272.400 C 212.152 274.270,212.951 276.520,213.201 277.400 C 213.451 278.280,213.817 279.360,214.015 279.800 C 214.735 281.404,218.400 291.614,218.400 292.017 C 218.400 292.245,218.738 293.100,219.151 293.916 C 219.564 294.732,220.033 296.030,220.193 296.800 C 220.353 297.570,220.732 298.740,221.035 299.400 C 221.337 300.060,221.971 301.680,222.442 303.000 C 225.583 311.790,228.237 319.147,229.586 322.800 C 230.276 324.670,231.646 328.450,232.631 331.200 C 233.616 333.950,234.802 337.125,235.266 338.255 C 236.966 342.395,236.506 342.725,226.600 344.473 C 214.448 346.617,211.943 346.852,198.807 347.080 C 184.303 347.332,173.667 346.483,162.895 344.212 C 161.413 343.900,159.660 343.536,159.000 343.403 C 156.325 342.867,150.950 341.499,150.200 341.165 C 149.760 340.968,148.320 340.544,147.000 340.222 C 143.709 339.418,137.053 337.090,133.839 335.618 C 132.377 334.948,131.105 334.400,131.013 334.400 C 130.790 334.400,123.960 331.241,123.200 330.786 C 122.870 330.589,121.520 329.861,120.200 329.170 C 105.086 321.256,86.346 306.318,75.552 293.581 C 74.535 292.381,72.638 290.140,71.337 288.600 C 53.915 267.988,42.165 241.894,37.835 214.200 C 33.502 186.489,37.608 148.048,47.191 126.600 C 47.584 125.720,48.470 123.650,49.160 122.000 C 50.706 118.305,52.401 114.929,54.966 110.440 C 56.047 108.548,57.388 106.190,57.945 105.200 C 58.503 104.210,59.553 102.547,60.279 101.504 C 61.006 100.461,61.600 99.506,61.600 99.381 C 61.600 98.874,66.411 92.549,72.408 85.172 C 75.765 81.043,89.077 67.606,92.471 64.921 C 93.807 63.865,95.767 62.280,96.827 61.400 C 101.325 57.666,106.452 54.052,112.800 50.141 C 118.076 46.890,117.917 46.978,124.241 43.836 C 137.259 37.369,151.020 32.772,163.200 30.819 C 166.170 30.343,169.410 29.788,170.400 29.587 C 171.390 29.385,174.448 29.022,177.196 28.780 C 179.944 28.538,182.274 28.259,182.373 28.160 C 182.738 27.796,209.154 28.273,214.000 28.731 M187.000 48.385 C 179.692 49.937,172.967 52.833,167.794 56.656 C 163.827 59.587,155.200 68.425,155.200 69.558 C 155.200 69.801,155.044 70.000,154.853 70.000 C 154.575 70.000,152.563 73.824,149.556 80.066 C 145.323 88.854,146.456 113.954,151.359 120.000 C 151.626 120.330,152.075 121.140,152.357 121.800 C 154.032 125.733,161.183 134.209,166.192 138.200 C 179.664 148.933,199.985 151.550,216.604 144.694 C 218.362 143.968,220.340 143.037,221.000 142.625 C 221.660 142.213,222.871 141.453,223.691 140.938 C 224.512 140.422,225.289 140.000,225.420 140.000 C 226.067 140.000,236.800 129.940,236.800 129.333 C 236.800 129.213,237.475 128.267,238.300 127.230 C 241.856 122.764,246.890 110.491,246.759 106.608 L 246.718 105.400 246.384 106.600 C 246.201 107.260,245.765 109.060,245.417 110.600 C 244.707 113.739,242.741 118.808,241.093 121.750 C 240.492 122.823,240.000 123.780,240.000 123.877 C 240.000 123.974,239.190 125.048,238.200 126.264 C 237.210 127.479,236.400 128.650,236.400 128.865 C 236.400 129.755,225.306 140.000,224.343 140.000 C 224.136 140.000,223.435 140.360,222.784 140.800 C 222.133 141.240,221.078 141.952,220.440 142.382 C 219.802 142.813,218.767 143.291,218.140 143.446 C 217.513 143.601,216.332 144.073,215.516 144.496 C 210.683 146.998,195.574 148.871,189.800 147.684 C 186.001 146.903,180.596 145.500,179.400 144.985 C 177.798 144.295,174.179 142.566,172.200 141.547 C 170.038 140.432,165.728 137.274,164.357 135.800 C 163.743 135.140,162.954 134.330,162.602 134.000 C 159.754 131.325,157.751 129.294,157.408 128.733 C 157.183 128.366,156.168 126.836,155.152 125.333 C 154.135 123.830,153.073 121.880,152.790 121.000 C 152.508 120.120,151.945 119.165,151.539 118.877 C 151.132 118.590,150.800 118.036,150.800 117.646 C 150.800 117.257,150.364 115.864,149.830 114.552 C 145.106 102.924,147.083 82.952,154.004 72.400 C 156.696 68.296,157.730 66.985,160.766 63.821 C 162.655 61.853,165.280 59.391,166.600 58.351 C 167.920 57.311,169.278 56.213,169.618 55.912 C 169.958 55.611,171.848 54.589,173.818 53.642 C 175.788 52.695,178.077 51.580,178.903 51.164 C 180.329 50.448,182.609 49.862,189.000 48.568 C 195.754 47.200,210.782 48.743,215.195 51.256 C 215.528 51.446,216.970 52.135,218.400 52.789 C 225.112 55.854,233.925 63.122,237.411 68.466 C 237.937 69.273,238.563 70.054,238.802 70.201 C 239.487 70.625,243.158 78.291,244.257 81.593 C 246.296 87.721,246.529 89.178,246.788 97.400 L 247.040 105.400 247.120 98.120 C 247.233 87.855,246.443 84.300,241.981 75.000 C 239.108 69.011,232.810 61.489,227.090 57.215 C 216.213 49.087,200.248 45.571,187.000 48.385 " stroke="none" fill="#ffffff" fill-rule="evenodd"></path></g></svg>